<?xml version="1.0" encoding="UTF-8"?>
<svg xmlns="http://www.w3.org/2000/svg" xmlns:xlink="http://www.w3.org/1999/xlink" viewBox="0 0 50 50" width="50px" height="50px">
<g id="surface22721720">
<path style="fill-rule:nonzero;fill:rgb(88.235295%,92.156863%,94.901961%);fill-opacity:1;stroke-width:2;stroke-linecap:butt;stroke-linejoin:round;stroke:rgb(20.392157%,59.607846%,85.882354%);stroke-opacity:1;stroke-miterlimit:10;" d="M 1.078382 148.558855 L 169.93656 148.558855 L 169.93656 159.240946 L 1.078382 159.240946 Z M 1.078382 148.558855 " transform="matrix(0.288889,0,0,0.288889,0.301749,0.301749)"/>
<path style="fill-rule:nonzero;fill:rgb(40.000001%,47.450981%,56.078434%);fill-opacity:1;stroke-width:2;stroke-linecap:butt;stroke-linejoin:round;stroke:rgb(20.392157%,59.607846%,85.882354%);stroke-opacity:1;stroke-miterlimit:10;" d="M 168.868351 149.627064 L 2.146592 149.627064 L 2.146592 158.172737 L 168.868351 158.172737 L 168.868351 149.627064 M 171.004769 147.490646 L 171.004769 160.309156 L 0.0101733 160.309156 L 0.0101733 147.490646 Z M 171.004769 147.490646 " transform="matrix(0.288889,0,0,0.288889,0.301749,0.301749)"/>
<path style="fill-rule:nonzero;fill:rgb(69.01961%,75.686276%,83.137256%);fill-opacity:1;stroke-width:2;stroke-linecap:butt;stroke-linejoin:round;stroke:rgb(20.392157%,59.607846%,85.882354%);stroke-opacity:1;stroke-miterlimit:10;" d="M 9.624056 137.863242 L 161.390886 137.863242 L 161.390886 148.558855 L 9.624056 148.558855 Z M 9.624056 137.863242 " transform="matrix(0.288889,0,0,0.288889,0.301749,0.301749)"/>
<path style="fill-rule:nonzero;fill:rgb(40.000001%,47.450981%,56.078434%);fill-opacity:1;stroke-width:2;stroke-linecap:butt;stroke-linejoin:round;stroke:rgb(20.392157%,59.607846%,85.882354%);stroke-opacity:1;stroke-miterlimit:10;" d="M 160.322677 138.931451 L 10.692265 138.931451 L 10.692265 147.490646 L 160.322677 147.490646 L 160.322677 138.931451 M 162.459096 136.795032 L 162.459096 149.627064 L 8.555847 149.627064 L 8.555847 136.795032 Z M 162.459096 136.795032 " transform="matrix(0.288889,0,0,0.288889,0.301749,0.301749)"/>
<path style="fill-rule:nonzero;fill:rgb(69.01961%,75.686276%,83.137256%);fill-opacity:1;stroke-width:2;stroke-linecap:butt;stroke-linejoin:round;stroke:rgb(20.392157%,59.607846%,85.882354%);stroke-opacity:1;stroke-miterlimit:10;" d="M 13.896892 54.502362 L 28.851821 54.502362 L 28.851821 133.590405 L 13.896892 133.590405 Z M 13.896892 54.502362 " transform="matrix(0.288889,0,0,0.288889,0.301749,0.301749)"/>
<path style="fill-rule:nonzero;fill:rgb(40.000001%,47.450981%,56.078434%);fill-opacity:1;stroke-width:2;stroke-linecap:butt;stroke-linejoin:round;stroke:rgb(20.392157%,59.607846%,85.882354%);stroke-opacity:1;stroke-miterlimit:10;" d="M 27.783611 55.570571 L 14.965102 55.570571 L 14.965102 132.522196 L 27.783611 132.522196 L 27.783611 55.570571 M 29.92003 53.434153 L 29.92003 134.658614 L 12.828683 134.658614 L 12.828683 53.434153 Z M 29.92003 53.434153 " transform="matrix(0.288889,0,0,0.288889,0.301749,0.301749)"/>
<path style="fill-rule:nonzero;fill:rgb(88.235295%,92.156863%,94.901961%);fill-opacity:1;stroke-width:2;stroke-linecap:butt;stroke-linejoin:round;stroke:rgb(20.392157%,59.607846%,85.882354%);stroke-opacity:1;stroke-miterlimit:10;" d="M 9.624056 129.317568 L 33.138179 129.317568 L 33.138179 137.863242 L 9.624056 137.863242 Z M 9.624056 129.317568 " transform="matrix(0.288889,0,0,0.288889,0.301749,0.301749)"/>
<path style="fill-rule:nonzero;fill:rgb(40.000001%,47.450981%,56.078434%);fill-opacity:1;stroke-width:2;stroke-linecap:butt;stroke-linejoin:round;stroke:rgb(20.392157%,59.607846%,85.882354%);stroke-opacity:1;stroke-miterlimit:10;" d="M 32.06997 130.385777 L 10.692265 130.385777 L 10.692265 136.795032 L 32.06997 136.795032 L 32.06997 130.385777 M 34.206388 128.249359 L 34.206388 138.931451 L 8.555847 138.931451 L 8.555847 128.249359 Z M 34.206388 128.249359 " transform="matrix(0.288889,0,0,0.288889,0.301749,0.301749)"/>
<path style="fill-rule:nonzero;fill:rgb(88.235295%,92.156863%,94.901961%);fill-opacity:1;stroke-width:2;stroke-linecap:butt;stroke-linejoin:round;stroke:rgb(20.392157%,59.607846%,85.882354%);stroke-opacity:1;stroke-miterlimit:10;" d="M 9.624056 48.093107 L 33.138179 48.093107 L 33.138179 58.775199 L 9.624056 58.775199 Z M 9.624056 48.093107 " transform="matrix(0.288889,0,0,0.288889,0.301749,0.301749)"/>
<path style="fill-rule:nonzero;fill:rgb(40.000001%,47.450981%,56.078434%);fill-opacity:1;stroke-width:2;stroke-linecap:butt;stroke-linejoin:round;stroke:rgb(20.392157%,59.607846%,85.882354%);stroke-opacity:1;stroke-miterlimit:10;" d="M 32.06997 49.161316 L 10.692265 49.161316 L 10.692265 57.70699 L 32.06997 57.70699 L 32.06997 49.161316 M 34.206388 47.024898 L 34.206388 59.843408 L 8.555847 59.843408 L 8.555847 47.024898 Z M 34.206388 47.024898 " transform="matrix(0.288889,0,0,0.288889,0.301749,0.301749)"/>
<path style="fill-rule:nonzero;fill:rgb(69.01961%,75.686276%,83.137256%);fill-opacity:1;stroke-width:2;stroke-linecap:butt;stroke-linejoin:round;stroke:rgb(20.392157%,59.607846%,85.882354%);stroke-opacity:1;stroke-miterlimit:10;" d="M 142.1496 54.502362 L 157.104528 54.502362 L 157.104528 133.590405 L 142.1496 133.590405 Z M 142.1496 54.502362 " transform="matrix(0.288889,0,0,0.288889,0.301749,0.301749)"/>
<path style="fill-rule:nonzero;fill:rgb(40.000001%,47.450981%,56.078434%);fill-opacity:1;stroke-width:2;stroke-linecap:butt;stroke-linejoin:round;stroke:rgb(20.392157%,59.607846%,85.882354%);stroke-opacity:1;stroke-miterlimit:10;" d="M 156.036319 55.570571 L 143.217809 55.570571 L 143.217809 132.522196 L 156.036319 132.522196 L 156.036319 55.570571 M 158.172737 53.434153 L 158.172737 134.658614 L 141.081391 134.658614 L 141.081391 53.434153 Z M 158.172737 53.434153 " transform="matrix(0.288889,0,0,0.288889,0.301749,0.301749)"/>
<path style="fill-rule:nonzero;fill:rgb(88.235295%,92.156863%,94.901961%);fill-opacity:1;stroke-width:2;stroke-linecap:butt;stroke-linejoin:round;stroke:rgb(20.392157%,59.607846%,85.882354%);stroke-opacity:1;stroke-miterlimit:10;" d="M 137.876763 129.317568 L 161.390886 129.317568 L 161.390886 137.863242 L 137.876763 137.863242 Z M 137.876763 129.317568 " transform="matrix(0.288889,0,0,0.288889,0.301749,0.301749)"/>
<path style="fill-rule:nonzero;fill:rgb(40.000001%,47.450981%,56.078434%);fill-opacity:1;stroke-width:2;stroke-linecap:butt;stroke-linejoin:round;stroke:rgb(20.392157%,59.607846%,85.882354%);stroke-opacity:1;stroke-miterlimit:10;" d="M 160.322677 130.385777 L 138.944972 130.385777 L 138.944972 136.795032 L 160.322677 136.795032 L 160.322677 130.385777 M 162.459096 128.249359 L 162.459096 138.931451 L 136.808554 138.931451 L 136.808554 128.249359 Z M 162.459096 128.249359 " transform="matrix(0.288889,0,0,0.288889,0.301749,0.301749)"/>
<path style="fill-rule:nonzero;fill:rgb(88.235295%,92.156863%,94.901961%);fill-opacity:1;stroke-width:2;stroke-linecap:butt;stroke-linejoin:round;stroke:rgb(20.392157%,59.607846%,85.882354%);stroke-opacity:1;stroke-miterlimit:10;" d="M 137.876763 48.093107 L 161.390886 48.093107 L 161.390886 58.775199 L 137.876763 58.775199 Z M 137.876763 48.093107 " transform="matrix(0.288889,0,0,0.288889,0.301749,0.301749)"/>
<path style="fill-rule:nonzero;fill:rgb(40.000001%,47.450981%,56.078434%);fill-opacity:1;stroke-width:2;stroke-linecap:butt;stroke-linejoin:round;stroke:rgb(20.392157%,59.607846%,85.882354%);stroke-opacity:1;stroke-miterlimit:10;" d="M 160.322677 49.161316 L 138.944972 49.161316 L 138.944972 57.70699 L 160.322677 57.70699 L 160.322677 49.161316 M 162.459096 47.024898 L 162.459096 59.843408 L 136.808554 59.843408 L 136.808554 47.024898 Z M 162.459096 47.024898 " transform="matrix(0.288889,0,0,0.288889,0.301749,0.301749)"/>
<path style="fill-rule:nonzero;fill:rgb(69.01961%,75.686276%,83.137256%);fill-opacity:1;stroke-width:2;stroke-linecap:butt;stroke-linejoin:round;stroke:rgb(20.392157%,59.607846%,85.882354%);stroke-opacity:1;stroke-miterlimit:10;" d="M 99.39419 54.502362 L 114.36264 54.502362 L 114.36264 133.590405 L 99.39419 133.590405 Z M 99.39419 54.502362 " transform="matrix(0.288889,0,0,0.288889,0.301749,0.301749)"/>
<path style="fill-rule:nonzero;fill:rgb(40.000001%,47.450981%,56.078434%);fill-opacity:1;stroke-width:2;stroke-linecap:butt;stroke-linejoin:round;stroke:rgb(20.392157%,59.607846%,85.882354%);stroke-opacity:1;stroke-miterlimit:10;" d="M 113.280909 55.570571 L 100.462399 55.570571 L 100.462399 132.522196 L 113.280909 132.522196 L 113.280909 55.570571 M 115.430849 53.434153 L 115.430849 134.658614 L 98.325981 134.658614 L 98.325981 53.434153 Z M 115.430849 53.434153 " transform="matrix(0.288889,0,0,0.288889,0.301749,0.301749)"/>
<path style="fill-rule:nonzero;fill:rgb(88.235295%,92.156863%,94.901961%);fill-opacity:1;stroke-width:2;stroke-linecap:butt;stroke-linejoin:round;stroke:rgb(20.392157%,59.607846%,85.882354%);stroke-opacity:1;stroke-miterlimit:10;" d="M 95.121354 129.317568 L 118.635477 129.317568 L 118.635477 137.863242 L 95.121354 137.863242 Z M 95.121354 129.317568 " transform="matrix(0.288889,0,0,0.288889,0.301749,0.301749)"/>
<path style="fill-rule:nonzero;fill:rgb(40.000001%,47.450981%,56.078434%);fill-opacity:1;stroke-width:2;stroke-linecap:butt;stroke-linejoin:round;stroke:rgb(20.392157%,59.607846%,85.882354%);stroke-opacity:1;stroke-miterlimit:10;" d="M 117.567268 130.385777 L 96.189563 130.385777 L 96.189563 136.795032 L 117.567268 136.795032 L 117.567268 130.385777 M 119.703686 128.249359 L 119.703686 138.931451 L 94.053144 138.931451 L 94.053144 128.249359 Z M 119.703686 128.249359 " transform="matrix(0.288889,0,0,0.288889,0.301749,0.301749)"/>
<path style="fill-rule:nonzero;fill:rgb(88.235295%,92.156863%,94.901961%);fill-opacity:1;stroke-width:2;stroke-linecap:butt;stroke-linejoin:round;stroke:rgb(20.392157%,59.607846%,85.882354%);stroke-opacity:1;stroke-miterlimit:10;" d="M 95.121354 48.093107 L 118.635477 48.093107 L 118.635477 58.775199 L 95.121354 58.775199 Z M 95.121354 48.093107 " transform="matrix(0.288889,0,0,0.288889,0.301749,0.301749)"/>
<path style="fill-rule:nonzero;fill:rgb(40.000001%,47.450981%,56.078434%);fill-opacity:1;stroke-width:2;stroke-linecap:butt;stroke-linejoin:round;stroke:rgb(20.392157%,59.607846%,85.882354%);stroke-opacity:1;stroke-miterlimit:10;" d="M 117.567268 49.161316 L 96.189563 49.161316 L 96.189563 57.70699 L 117.567268 57.70699 L 117.567268 49.161316 M 119.703686 47.024898 L 119.703686 59.843408 L 94.053144 59.843408 L 94.053144 47.024898 Z M 119.703686 47.024898 " transform="matrix(0.288889,0,0,0.288889,0.301749,0.301749)"/>
<path style="fill-rule:nonzero;fill:rgb(69.01961%,75.686276%,83.137256%);fill-opacity:1;stroke-width:2;stroke-linecap:butt;stroke-linejoin:round;stroke:rgb(20.392157%,59.607846%,85.882354%);stroke-opacity:1;stroke-miterlimit:10;" d="M 54.502362 54.502362 L 69.470812 54.502362 L 69.470812 133.590405 L 54.502362 133.590405 Z M 54.502362 54.502362 " transform="matrix(0.288889,0,0,0.288889,0.301749,0.301749)"/>
<path style="fill-rule:nonzero;fill:rgb(40.000001%,47.450981%,56.078434%);fill-opacity:1;stroke-width:2;stroke-linecap:butt;stroke-linejoin:round;stroke:rgb(20.392157%,59.607846%,85.882354%);stroke-opacity:1;stroke-miterlimit:10;" d="M 68.402603 55.570571 L 55.570571 55.570571 L 55.570571 132.522196 L 68.402603 132.522196 L 68.402603 55.570571 M 70.539021 53.434153 L 70.539021 134.658614 L 53.434153 134.658614 L 53.434153 53.434153 Z M 70.539021 53.434153 " transform="matrix(0.288889,0,0,0.288889,0.301749,0.301749)"/>
<path style="fill-rule:nonzero;fill:rgb(88.235295%,92.156863%,94.901961%);fill-opacity:1;stroke-width:2;stroke-linecap:butt;stroke-linejoin:round;stroke:rgb(20.392157%,59.607846%,85.882354%);stroke-opacity:1;stroke-miterlimit:10;" d="M 50.243047 129.317568 L 73.743649 129.317568 L 73.743649 137.863242 L 50.243047 137.863242 Z M 50.243047 129.317568 " transform="matrix(0.288889,0,0,0.288889,0.301749,0.301749)"/>
<path style="fill-rule:nonzero;fill:rgb(40.000001%,47.450981%,56.078434%);fill-opacity:1;stroke-width:2;stroke-linecap:butt;stroke-linejoin:round;stroke:rgb(20.392157%,59.607846%,85.882354%);stroke-opacity:1;stroke-miterlimit:10;" d="M 72.67544 130.385777 L 51.311256 130.385777 L 51.311256 136.795032 L 72.67544 136.795032 L 72.67544 130.385777 M 74.825379 128.249359 L 74.825379 138.931451 L 49.174838 138.931451 L 49.174838 128.249359 Z M 74.825379 128.249359 " transform="matrix(0.288889,0,0,0.288889,0.301749,0.301749)"/>
<path style="fill-rule:nonzero;fill:rgb(88.235295%,92.156863%,94.901961%);fill-opacity:1;stroke-width:2;stroke-linecap:butt;stroke-linejoin:round;stroke:rgb(20.392157%,59.607846%,85.882354%);stroke-opacity:1;stroke-miterlimit:10;" d="M 50.243047 48.093107 L 73.743649 48.093107 L 73.743649 58.775199 L 50.243047 58.775199 Z M 50.243047 48.093107 " transform="matrix(0.288889,0,0,0.288889,0.301749,0.301749)"/>
<path style="fill-rule:nonzero;fill:rgb(40.000001%,47.450981%,56.078434%);fill-opacity:1;stroke-width:2;stroke-linecap:butt;stroke-linejoin:round;stroke:rgb(20.392157%,59.607846%,85.882354%);stroke-opacity:1;stroke-miterlimit:10;" d="M 72.67544 49.161316 L 51.311256 49.161316 L 51.311256 57.70699 L 72.67544 57.70699 L 72.67544 49.161316 M 74.825379 47.024898 L 74.825379 59.843408 L 49.174838 59.843408 L 49.174838 47.024898 Z M 74.825379 47.024898 " transform="matrix(0.288889,0,0,0.288889,0.301749,0.301749)"/>
<path style="fill-rule:nonzero;fill:rgb(88.235295%,92.156863%,94.901961%);fill-opacity:1;stroke-width:2;stroke-linecap:butt;stroke-linejoin:round;stroke:rgb(20.392157%,59.607846%,85.882354%);stroke-opacity:1;stroke-miterlimit:10;" d="M 5.351219 50.229525 L 5.351219 39.18235 L 85.507471 5.432349 L 165.663723 39.18235 L 165.663723 50.229525 Z M 5.351219 50.229525 " transform="matrix(0.288889,0,0,0.288889,0.301749,0.301749)"/>
<path style="fill-rule:nonzero;fill:rgb(40.000001%,47.450981%,56.078434%);fill-opacity:1;stroke-width:2;stroke-linecap:butt;stroke-linejoin:round;stroke:rgb(20.392157%,59.607846%,85.882354%);stroke-opacity:1;stroke-miterlimit:10;" d="M 85.507471 6.59521 L 6.419428 39.898996 L 6.419428 49.161316 L 164.595514 49.161316 L 164.595514 39.898996 L 85.507471 6.59521 M 85.507471 4.28301 L 166.731932 38.479225 L 166.731932 51.297735 L 4.28301 51.297735 L 4.28301 38.479225 Z M 85.507471 4.28301 " transform="matrix(0.288889,0,0,0.288889,0.301749,0.301749)"/>
<path style=" stroke:none;fill-rule:nonzero;fill:rgb(70.980394%,83.137256%,90.588236%);fill-opacity:1;" d="M 0.613281 43.21875 L 49.394531 43.21875 L 49.394531 46.304688 L 0.613281 46.304688 Z M 0.613281 43.21875 "/>
<path style=" stroke:none;fill-rule:nonzero;fill:rgb(40.000001%,47.450981%,56.078434%);fill-opacity:1;" d="M 49.085938 43.527344 L 49.085938 45.996094 L 0.921875 45.996094 L 0.921875 43.527344 L 49.085938 43.527344 M 49.703125 42.910156 L 0.304688 42.910156 L 0.304688 46.613281 L 49.703125 46.613281 Z M 49.703125 42.910156 "/>
<path style=" stroke:none;fill-rule:nonzero;fill:rgb(69.01961%,75.686276%,83.137256%);fill-opacity:1;" d="M 3.082031 40.128906 L 46.925781 40.128906 L 46.925781 43.21875 L 3.082031 43.21875 Z M 3.082031 40.128906 "/>
<path style=" stroke:none;fill-rule:nonzero;fill:rgb(40.000001%,47.450981%,56.078434%);fill-opacity:1;" d="M 46.617188 40.4375 L 46.617188 42.910156 L 3.390625 42.910156 L 3.390625 40.4375 L 46.617188 40.4375 M 47.234375 39.820312 L 2.773438 39.820312 L 2.773438 43.527344 L 47.234375 43.527344 Z M 47.234375 39.820312 "/>
<path style=" stroke:none;fill-rule:nonzero;fill:rgb(69.01961%,75.686276%,83.137256%);fill-opacity:1;" d="M 4.316406 16.046875 L 8.636719 16.046875 L 8.636719 38.894531 L 4.316406 38.894531 Z M 4.316406 16.046875 "/>
<path style=" stroke:none;fill-rule:nonzero;fill:rgb(40.000001%,47.450981%,56.078434%);fill-opacity:1;" d="M 8.328125 16.355469 L 8.328125 38.585938 L 4.625 38.585938 L 4.625 16.355469 L 8.328125 16.355469 M 8.945312 15.738281 L 4.007812 15.738281 L 4.007812 39.203125 L 8.945312 39.203125 Z M 8.945312 15.738281 "/>
<path style=" stroke:none;fill-rule:nonzero;fill:rgb(70.980394%,83.137256%,90.588236%);fill-opacity:1;" d="M 3.082031 37.660156 L 9.875 37.660156 L 9.875 40.128906 L 3.082031 40.128906 Z M 3.082031 37.660156 "/>
<path style=" stroke:none;fill-rule:nonzero;fill:rgb(40.000001%,47.450981%,56.078434%);fill-opacity:1;" d="M 9.566406 37.96875 L 9.566406 39.820312 L 3.390625 39.820312 L 3.390625 37.96875 L 9.566406 37.96875 M 10.183594 37.351562 L 2.773438 37.351562 L 2.773438 40.4375 L 10.183594 40.4375 Z M 10.183594 37.351562 "/>
<path style=" stroke:none;fill-rule:nonzero;fill:rgb(70.980394%,83.137256%,90.588236%);fill-opacity:1;" d="M 3.082031 14.195312 L 9.875 14.195312 L 9.875 17.28125 L 3.082031 17.28125 Z M 3.082031 14.195312 "/>
<path style=" stroke:none;fill-rule:nonzero;fill:rgb(40.000001%,47.450981%,56.078434%);fill-opacity:1;" d="M 9.566406 14.503906 L 9.566406 16.972656 L 3.390625 16.972656 L 3.390625 14.503906 L 9.566406 14.503906 M 10.183594 13.886719 L 2.773438 13.886719 L 2.773438 17.589844 L 10.183594 17.589844 Z M 10.183594 13.886719 "/>
<path style=" stroke:none;fill-rule:nonzero;fill:rgb(69.01961%,75.686276%,83.137256%);fill-opacity:1;" d="M 41.367188 16.046875 L 45.6875 16.046875 L 45.6875 38.894531 L 41.367188 38.894531 Z M 41.367188 16.046875 "/>
<path style=" stroke:none;fill-rule:nonzero;fill:rgb(40.000001%,47.450981%,56.078434%);fill-opacity:1;" d="M 45.378906 16.355469 L 45.378906 38.585938 L 41.675781 38.585938 L 41.675781 16.355469 L 45.378906 16.355469 M 45.996094 15.738281 L 41.058594 15.738281 L 41.058594 39.203125 L 45.996094 39.203125 Z M 45.996094 15.738281 "/>
<path style=" stroke:none;fill-rule:nonzero;fill:rgb(70.980394%,83.137256%,90.588236%);fill-opacity:1;" d="M 40.132812 37.660156 L 46.925781 37.660156 L 46.925781 40.128906 L 40.132812 40.128906 Z M 40.132812 37.660156 "/>
<path style=" stroke:none;fill-rule:nonzero;fill:rgb(40.000001%,47.450981%,56.078434%);fill-opacity:1;" d="M 46.617188 37.96875 L 46.617188 39.820312 L 40.441406 39.820312 L 40.441406 37.96875 L 46.617188 37.96875 M 47.234375 37.351562 L 39.824219 37.351562 L 39.824219 40.4375 L 47.234375 40.4375 Z M 47.234375 37.351562 "/>
<path style=" stroke:none;fill-rule:nonzero;fill:rgb(70.980394%,83.137256%,90.588236%);fill-opacity:1;" d="M 40.132812 14.195312 L 46.925781 14.195312 L 46.925781 17.28125 L 40.132812 17.28125 Z M 40.132812 14.195312 "/>
<path style=" stroke:none;fill-rule:nonzero;fill:rgb(40.000001%,47.450981%,56.078434%);fill-opacity:1;" d="M 46.617188 14.503906 L 46.617188 16.972656 L 40.441406 16.972656 L 40.441406 14.503906 L 46.617188 14.503906 M 47.234375 13.886719 L 39.824219 13.886719 L 39.824219 17.589844 L 47.234375 17.589844 Z M 47.234375 13.886719 "/>
<path style=" stroke:none;fill-rule:nonzero;fill:rgb(69.01961%,75.686276%,83.137256%);fill-opacity:1;" d="M 29.015625 16.046875 L 33.339844 16.046875 L 33.339844 38.894531 L 29.015625 38.894531 Z M 29.015625 16.046875 "/>
<path style=" stroke:none;fill-rule:nonzero;fill:rgb(40.000001%,47.450981%,56.078434%);fill-opacity:1;" d="M 33.027344 16.355469 L 33.027344 38.585938 L 29.324219 38.585938 L 29.324219 16.355469 L 33.027344 16.355469 M 33.648438 15.738281 L 28.707031 15.738281 L 28.707031 39.203125 L 33.648438 39.203125 Z M 33.648438 15.738281 "/>
<path style=" stroke:none;fill-rule:nonzero;fill:rgb(70.980394%,83.137256%,90.588236%);fill-opacity:1;" d="M 27.78125 37.660156 L 34.574219 37.660156 L 34.574219 40.128906 L 27.78125 40.128906 Z M 27.78125 37.660156 "/>
<path style=" stroke:none;fill-rule:nonzero;fill:rgb(40.000001%,47.450981%,56.078434%);fill-opacity:1;" d="M 34.265625 37.96875 L 34.265625 39.820312 L 28.089844 39.820312 L 28.089844 37.96875 L 34.265625 37.96875 M 34.882812 37.351562 L 27.472656 37.351562 L 27.472656 40.4375 L 34.882812 40.4375 Z M 34.882812 37.351562 "/>
<path style=" stroke:none;fill-rule:nonzero;fill:rgb(70.980394%,83.137256%,90.588236%);fill-opacity:1;" d="M 27.78125 14.195312 L 34.574219 14.195312 L 34.574219 17.28125 L 27.78125 17.28125 Z M 27.78125 14.195312 "/>
<path style=" stroke:none;fill-rule:nonzero;fill:rgb(40.000001%,47.450981%,56.078434%);fill-opacity:1;" d="M 34.265625 14.503906 L 34.265625 16.972656 L 28.089844 16.972656 L 28.089844 14.503906 L 34.265625 14.503906 M 34.882812 13.886719 L 27.472656 13.886719 L 27.472656 17.589844 L 34.882812 17.589844 Z M 34.882812 13.886719 "/>
<path style=" stroke:none;fill-rule:nonzero;fill:rgb(69.01961%,75.686276%,83.137256%);fill-opacity:1;" d="M 16.046875 16.046875 L 20.371094 16.046875 L 20.371094 38.894531 L 16.046875 38.894531 Z M 16.046875 16.046875 "/>
<path style=" stroke:none;fill-rule:nonzero;fill:rgb(40.000001%,47.450981%,56.078434%);fill-opacity:1;" d="M 20.0625 16.355469 L 20.0625 38.585938 L 16.355469 38.585938 L 16.355469 16.355469 L 20.0625 16.355469 M 20.679688 15.738281 L 15.738281 15.738281 L 15.738281 39.203125 L 20.679688 39.203125 Z M 20.679688 15.738281 "/>
<path style=" stroke:none;fill-rule:nonzero;fill:rgb(70.980394%,83.137256%,90.588236%);fill-opacity:1;" d="M 14.816406 37.660156 L 21.605469 37.660156 L 21.605469 40.128906 L 14.816406 40.128906 Z M 14.816406 37.660156 "/>
<path style=" stroke:none;fill-rule:nonzero;fill:rgb(40.000001%,47.450981%,56.078434%);fill-opacity:1;" d="M 21.296875 37.96875 L 21.296875 39.820312 L 15.125 39.820312 L 15.125 37.96875 L 21.296875 37.96875 M 21.917969 37.351562 L 14.507812 37.351562 L 14.507812 40.4375 L 21.917969 40.4375 Z M 21.917969 37.351562 "/>
<path style=" stroke:none;fill-rule:nonzero;fill:rgb(70.980394%,83.137256%,90.588236%);fill-opacity:1;" d="M 14.816406 14.195312 L 21.605469 14.195312 L 21.605469 17.28125 L 14.816406 17.28125 Z M 14.816406 14.195312 "/>
<path style=" stroke:none;fill-rule:nonzero;fill:rgb(40.000001%,47.450981%,56.078434%);fill-opacity:1;" d="M 21.296875 14.503906 L 21.296875 16.972656 L 15.125 16.972656 L 15.125 14.503906 L 21.296875 14.503906 M 21.917969 13.886719 L 14.507812 13.886719 L 14.507812 17.589844 L 21.917969 17.589844 Z M 21.917969 13.886719 "/>
<path style=" stroke:none;fill-rule:nonzero;fill:rgb(70.980394%,83.137256%,90.588236%);fill-opacity:1;" d="M 1.847656 14.8125 L 1.847656 11.621094 L 25.003906 1.871094 L 48.160156 11.621094 L 48.160156 14.8125 Z M 1.847656 14.8125 "/>
<path style=" stroke:none;fill-rule:nonzero;fill:rgb(40.000001%,47.450981%,56.078434%);fill-opacity:1;" d="M 25.003906 2.207031 L 47.851562 11.828125 L 47.851562 14.503906 L 2.15625 14.503906 L 2.15625 11.828125 L 25.003906 2.207031 M 25.003906 1.539062 L 1.539062 11.417969 L 1.539062 15.121094 L 48.46875 15.121094 L 48.46875 11.417969 Z M 25.003906 1.539062 "/>
</g>
</svg>
