<?xml version="1.0" encoding="utf-8"?>
<!-- Generator: Adobe Illustrator 16.0.0, SVG Export Plug-In . SVG Version: 6.00 Build 0)  -->
<!DOCTYPE svg PUBLIC "-//W3C//DTD SVG 1.1//EN" "http://www.w3.org/Graphics/SVG/1.1/DTD/svg11.dtd">
<svg version="1.1" id="Layer_1" xmlns="http://www.w3.org/2000/svg" xmlns:xlink="http://www.w3.org/1999/xlink" x="0px" y="0px"
	 width="250px" height="197.838px" viewBox="464.916 369.127 250 197.838" enable-background="new 464.916 369.127 250 197.838"
	 xml:space="preserve">
<path fill="#D1AB67" d="M464.916,482.243c1.356,0.489,2.699,1.023,4.073,1.456c3.667,1.157,7.339,0.614,11.001-0.067
	c3.71-0.69,7.358-1.669,11.085-2.3c5.57-0.943,10.818-0.011,15.888,2.307c1.512,0.691,3.007,1.419,4.412,2.309
	c0.514,0.324,0.921,0.313,1.458,0.039c3.736-1.908,7.64-3.302,11.83-3.824c3.644-0.454,7.187,0.103,10.684,1.039
	c3.136,0.841,6.244,1.784,9.371,2.655c4.887,1.361,9.745,1.679,14.711-0.709c-0.393,2.071-1.325,3.564-2.656,4.782
	c-2.001,1.831-4.444,2.673-7.12,2.938c-5.669,0.563-10.885-1.078-16.023-3.194c-6.146-2.53-12.165-1.826-18.063,0.886
	c-1.226,0.564-2.32,1.354-3.264,2.329c-0.289,0.299-0.465,0.419-0.825,0.023c-2.877-3.155-6.667-4.515-10.708-5.352
	c-3.616-0.749-7.16-0.476-10.641,0.749c-4.155,1.462-8.4,2.513-12.84,2.381c-3.142-0.093-6.18-0.661-8.796-2.608
	c-1.493-1.111-2.537-2.538-3.177-4.276c-0.094-0.254-0.109-0.563-0.4-0.712C464.916,482.809,464.916,482.526,464.916,482.243z"/>
<path fill="#FE9833" d="M469.958,499.469c1.498,1.233,3.024,2.411,4.712,3.366c4.769,2.697,9.949,4.163,15.305,5.071
	c7.98,1.353,15.989,1.128,23.992,0.272c7.445-0.795,14.871-1.767,22.32-2.528c7.788-0.796,15.588-0.844,23.398-0.122
	c7.973,0.738,15.815,2.088,23.455,4.52c2.053,0.654,4.08,1.385,6.039,2.286c0.479,0.221,0.886,0.266,1.397,0.04
	c6.971-3.066,14.318-4.767,21.807-5.924c6.648-1.028,13.346-1.513,20.07-1.431c6.438,0.079,12.832,0.759,19.221,1.538
	c6.521,0.795,13.03,1.684,19.598,2.071c7.337,0.435,14.626,0.271,21.827-1.352c4.186-0.943,8.234-2.27,11.988-4.4
	c1.666-0.946,3.193-2.074,4.656-3.43c0.203,0.532-0.113,0.863-0.286,1.198c-1.196,2.322-3.052,4.071-5.104,5.597
	c-6.364,4.734-13.527,7.545-21.358,8.708c-5.085,0.756-10.167,0.296-15.234-0.125c-9.223-0.768-18.364-2.326-27.595-3.015
	c-7.809-0.582-15.61-0.405-23.396,0.516c-7.774,0.918-15.408,2.433-22.782,5.117c-1.389,0.506-2.764,1.456-4.146,1.46
	c-1.344,0.003-2.68-0.978-4.038-1.473c-7.305-2.667-14.871-4.17-22.573-5.088c-5.804-0.692-11.625-0.943-17.463-0.82
	c-6.227,0.13-12.401,0.866-18.577,1.605c-7.084,0.85-14.164,1.688-21.298,2.113c-9.871,0.59-18.889-1.861-27.304-6.867
	c-2.381-1.416-4.562-3.098-6.424-5.166C471.188,502.124,470.39,500.93,469.958,499.469z"/>
<path fill="#128608" d="M477.789,510.248c4.94,5.067,11.024,7.284,17.486,8.705c7.302,1.606,14.672,1.477,22.058,0.76
	c7.563-0.736,15.058-2.017,22.612-2.822c8.935-0.953,17.859-0.793,26.773,0.319c6.783,0.846,13.442,2.194,19.823,4.716
	c1.145,0.452,2.262,1.358,3.391,1.357c1.13-0.002,2.246-0.909,3.391-1.365c6.174-2.463,12.63-3.776,19.19-4.647
	c5.159-0.686,10.347-0.988,15.549-1.015c6.412-0.033,12.771,0.678,19.116,1.529c8.649,1.16,17.283,2.575,26.05,2.417
	c7.594-0.138,14.965-1.408,21.845-4.83c2.549-1.268,4.851-2.88,6.921-5.114c-0.251,1.274-0.8,2.207-1.408,3.104
	c-1.655,2.437-3.834,4.347-6.237,5.991c-8.151,5.578-17.098,8.152-27.027,7.386c-7.479-0.579-14.892-1.623-22.315-2.622
	c-9.817-1.32-19.647-1.604-29.512-0.548c-7.15,0.766-14.185,2.034-20.957,4.519c-1.355,0.497-2.671,1.105-3.99,1.694
	c-0.411,0.184-0.738,0.244-1.185,0.031c-6.567-3.144-13.582-4.702-20.731-5.73c-7.015-1.009-14.073-1.348-21.157-1.094
	c-5.908,0.21-11.755,1.021-17.604,1.81c-7.251,0.978-14.498,2.161-21.836,2.002c-10.875-0.236-20.193-4.241-27.767-12.117
	C479.141,513.51,478.319,512.105,477.789,510.248z"/>
<path fill="#D1AB67" d="M588.591,460.302c-5.828,0.282-10.636-3.031-12.239-9.01c-1.105-4.12-0.872-8.249,0.103-12.369
	c0.421-1.782,0.983-3.559,0.961-5.408c-0.086-7.206-3.257-12.65-9.487-16.271c-0.661-0.384-0.662-0.528-0.18-1.075
	c2.358-2.675,3.381-5.896,3.711-9.389c0.469-4.95-1.03-9.235-4.151-13.069c-2.781-3.417-4.774-7.267-5.515-11.658
	c-0.931-5.516,1.105-10.204,6.54-12.643c0.278-0.125,0.604-0.416,0.88-0.211c0.321,0.238,0.022,0.594-0.069,0.872
	c-1.716,5.228-0.039,9.859,2.472,14.363c1.583,2.839,3.262,5.622,4.788,8.496c2.824,5.322,3.185,10.821,1.52,16.533
	c-0.455,1.562-0.926,3.122-1.647,4.579c-0.424,0.859-0.333,1.393,0.385,2.088c3.04,2.944,5.694,6.189,7.352,10.146
	c1.329,3.172,1.638,6.492,1.34,9.874c-0.329,3.726-0.82,7.438-1.107,11.167c-0.343,4.456,0.601,8.574,3.63,12.04
	C588.106,459.617,588.299,459.912,588.591,460.302z"/>
<path fill="#D1AB67" d="M612.666,416.841c-3.02,1.332-5.271,3.44-7.01,6.084c-2.246,3.417-3.63,7.115-3.205,11.292
	c0.235,2.322,1.005,4.547,1.365,6.846c0.641,4.101,0.637,8.169-0.978,12.092c-1.904,4.63-6.414,7.454-11.512,7.175
	c0.197-0.558,0.604-0.942,0.945-1.356c2.929-3.557,3.68-7.704,3.271-12.148c-0.35-3.795-0.822-7.58-1.121-11.379
	c-0.51-6.468,1.968-11.869,6.169-16.604c0.797-0.899,1.561-1.854,2.482-2.608c0.906-0.74,0.854-1.399,0.424-2.357
	c-1.189-2.652-1.969-5.428-2.387-8.317c-0.569-3.932,0.028-7.659,1.674-11.255c1.549-3.384,3.564-6.506,5.361-9.751
	c0.788-1.425,1.465-2.9,2.104-4.396c1.394-3.26,1.439-6.576,0.474-9.951c-0.09-0.315-0.438-0.721-0.121-0.979
	c0.341-0.277,0.721,0.105,1.055,0.258c5.333,2.44,7.295,7.122,6.392,12.526c-0.671,4.017-2.438,7.573-4.852,10.825
	c-0.653,0.88-1.288,1.773-1.936,2.657c-3.009,4.109-3.419,8.716-2.551,13.545C609.24,411.988,610.523,414.586,612.666,416.841z"/>
<path fill="#D1AB67" d="M580.206,461.974c-4.128,1.697-9.138,0.946-12.615-2.41c-3.365-3.247-5.006-7.38-5.883-11.86
	c-0.393-2.005-0.542-4.059-0.947-6.062c-0.867-4.283-3.519-7.411-6.834-10.03c-2.593-2.047-5.509-3.426-8.958-3.759
	c0.758-1.783,1.265-3.584,1.209-5.469c-0.189-6.328-2.423-11.621-7.847-15.274c-2.934-1.976-5.828-3.998-8.129-6.745
	c-2.241-2.674-3.951-5.555-4.285-9.145c-0.279-3.004,1.741-7.193,4.482-8.728c0.122,1.155,0.155,2.271,0.377,3.364
	c0.605,2.979,2.16,5.409,4.207,7.586c2.671,2.843,5.699,5.295,8.7,7.757c6.112,5.016,9.134,11.434,8.815,19.275
	c-0.102,2.512,0.596,3.749,2.91,4.796c3.916,1.773,7.362,4.348,9.947,7.889c2.188,2.997,3.262,6.471,4.179,10.005
	c0.743,2.868,1.4,5.755,2.296,8.586c1.327,4.195,3.74,7.483,7.573,9.692C579.642,461.583,579.865,461.748,580.206,461.974z"/>
<path fill="#D1AB67" d="M599.644,461.988c0.995-0.682,1.91-1.273,2.788-1.916c2.477-1.814,4.061-4.271,5.134-7.113
	c1.303-3.446,2.003-7.056,2.948-10.599c1.083-4.063,2.518-7.965,5.503-11.072c2.727-2.837,5.949-5.021,9.521-6.616
	c1.417-0.634,1.884-1.368,1.777-2.909c-0.228-3.295,0.201-6.554,1.128-9.735c1.279-4.386,4.159-7.65,7.479-10.59
	c2.143-1.897,4.363-3.708,6.502-5.608c3.971-3.526,7.109-7.514,6.931-13.354c0.796,0.269,1.241,0.757,1.672,1.234
	c3.159,3.491,3.72,7.431,1.825,11.682c-1.853,4.156-4.982,7.237-8.637,9.835c-1.41,1.003-2.845,1.977-4.209,3.041
	c-3.731,2.91-5.426,6.938-6.159,11.468c-0.221,1.364-0.253,2.728-0.086,4.114c0.166,1.378,0.575,2.675,1.074,3.897
	c-6.959,1.302-11.924,5.104-14.968,11.365c-1.096,2.252-1.156,4.784-1.508,7.224c-0.638,4.414-2.079,8.502-4.937,11.99
	C609.867,462.664,604.381,463.873,599.644,461.988z"/>
<path fill="#D1AB67" d="M503.248,402.045c1.264,4.137,3.718,7.197,7.352,9.335c2.104,1.238,4.262,2.362,6.471,3.397
	c2.879,1.349,5.749,2.715,8.427,4.45c4.488,2.907,7.136,7.15,8.826,12.087c0.422,1.232,0.742,2.501,1.076,3.762
	c0.146,0.551,0.338,0.861,1.005,0.981c2.817,0.507,5.559,1.293,8.234,2.336c5.135,2.002,8.842,5.587,11.604,10.259
	c1.672,2.828,3.333,5.663,5.051,8.462c2.587,4.217,6.164,7.14,11.314,8.244c-1.085,1.011-2.256,1.444-3.434,1.797
	c-4.904,1.47-9.033-0.113-12.66-3.386c-3.161-2.851-5.212-6.454-6.866-10.332c-3.303-7.746-10.533-12.273-18.961-11.96
	c-0.469,0.018-1.129,0.303-1.007-0.671c0.416-3.316-0.684-6.268-2.295-9.066c-2.433-4.228-5.98-7.062-10.656-8.53
	c-4.077-1.281-7.898-3.104-11.125-5.969c-2.969-2.637-5.024-5.737-4.629-9.968C501.132,405.59,501.974,403.498,503.248,402.045z"/>
<path fill="#D1AB67" d="M676.655,402.15c2.672,2.85,2.977,7.75,0.755,11.38c-1.81,2.955-4.479,4.945-7.383,6.695
	c-2.565,1.546-5.426,2.374-8.177,3.472c-6.983,2.788-10.752,8.062-11.804,15.398c-0.068,0.479-0.015,0.994,0.082,1.472
	c0.148,0.746-0.04,0.987-0.845,0.938c-6.183-0.369-11.283,2.032-15.651,6.232c-1.616,1.555-2.557,3.547-3.396,5.574
	c-1.571,3.793-3.577,7.296-6.58,10.151c-2.585,2.458-5.559,4.147-9.215,4.24c-2.559,0.065-4.927-0.646-7.171-2.215
	c1.149-0.411,2.169-0.751,3.171-1.136c4.094-1.573,6.646-4.791,8.833-8.371c1.546-2.532,3.034-5.101,4.521-7.669
	c3.63-6.267,9.222-9.77,16.099-11.47c1.061-0.262,2.125-0.539,3.203-0.7c0.846-0.126,1.222-0.469,1.411-1.348
	c0.646-2.982,1.756-5.803,3.222-8.486c2.185-4,5.562-6.694,9.497-8.806c3.487-1.872,7.168-3.35,10.616-5.301
	c3.027-1.712,5.78-3.71,7.395-6.917C675.742,404.28,676.168,403.232,676.655,402.15z"/>
<path fill="#D1AB67" d="M483.042,426.741c0.654,0.822,1.287,1.67,1.975,2.47c2.594,3.018,6.114,4.354,9.827,5.265
	c3.355,0.823,6.728,1.587,10.115,2.268c7.98,1.604,13.419,6.459,17.192,13.404c0.588,1.083,1.212,1.382,2.369,1.326
	c3.933-0.19,7.827,0.09,11.634,1.225c4.387,1.307,7.737,4.151,10.929,7.242c2.234,2.163,4.36,4.435,6.678,6.516
	c3.466,3.111,7.478,4.732,12.123,4.726c0.15,0.42-0.185,0.543-0.354,0.717c-3.33,3.422-8.354,4.32-13.247,2.335
	c-4.342-1.763-7.846-4.661-10.565-8.412c-3.306-4.559-7.612-7.373-13.156-8.304c-3.106-0.521-6.184-0.557-9.191,0.556
	c-0.337,0.125-0.65,0.338-0.752-0.277c-0.784-4.722-3.762-7.926-7.39-10.696c-3.171-2.422-6.868-3.142-10.714-3.496
	c-5.249-0.483-10.221-1.813-14.454-5.151c-3.548-2.798-4.851-7.293-3.33-11.293C482.793,426.992,482.844,426.828,483.042,426.741z"
	/>
<path fill="#D1AB67" d="M696.882,426.612c1.286,3.186,1.135,6.152-0.602,8.998c-1.696,2.781-4.345,4.39-7.232,5.652
	c-3.101,1.355-6.364,2.15-9.732,2.334c-7.263,0.397-12.767,3.673-16.564,9.846c-0.783,1.273-1.313,2.665-1.507,4.152
	c-0.076,0.584-0.216,0.711-0.788,0.486c-5.828-2.295-16.51-0.287-21.326,6.525c-2.468,3.492-5.494,6.464-9.286,8.549
	c-3.565,1.96-7.29,2.852-11.293,1.458c-1.918-0.667-3.783-2.009-4.687-3.347c1.514-0.194,3.014-0.278,4.488-0.595
	c3.418-0.732,6.118-2.695,8.591-5.003c2.686-2.508,5.255-5.142,7.918-7.675c3.955-3.763,8.671-5.836,14.113-6.353
	c2.155-0.205,4.307-0.26,6.456-0.159c1.089,0.051,1.668-0.256,2.207-1.247c2.207-4.047,5.001-7.625,8.922-10.177
	c3.257-2.12,6.962-3.044,10.695-3.862c3.479-0.762,6.984-1.391,10.387-2.486c3.559-1.146,6.445-3.155,8.568-6.243
	C696.388,427.209,696.596,426.974,696.882,426.612z"/>
<path fill="#D1AB67" d="M562.201,477.647c-1.34,2.489-3.249,4.129-5.769,5.014c-3.826,1.344-7.589,0.742-11.293-0.56
	c-2.854-1.002-5.481-2.44-7.905-4.252c-2.917-2.182-6.003-3.934-9.73-4.383c-4.968-0.6-9.722-0.21-14.083,2.487
	c-3.11-5.662-8.233-8.322-14.305-9.489c-2.275-0.438-4.578-0.099-6.858,0.182c-4.925,0.608-9.807,0.589-14.529-1.185
	c-2.762-1.038-5.065-2.658-6.331-5.456c-0.686-1.515-0.889-3.096-0.694-4.746c0.46-0.074,0.66,0.277,0.917,0.484
	c2.992,2.416,6.432,3.534,10.247,3.821c4.036,0.303,8.06,0.048,12.08-0.067c8.223-0.234,15.014,2.815,20.707,8.563
	c0.723,0.73,1.353,0.898,2.315,0.61c3.023-0.908,6.141-1.321,9.287-1.448c4.686-0.19,8.98,1.199,13.077,3.36
	c3.499,1.847,6.844,3.968,10.438,5.649c3.826,1.791,7.769,2.214,11.881,1.458C561.78,477.666,561.913,477.669,562.201,477.647z"/>
<path fill="#D1AB67" d="M617.994,478.029c1.114-0.164,2.11,0.163,3.123,0.236c3.375,0.246,6.506-0.533,9.541-1.949
	c3.785-1.767,7.274-4.072,11.002-5.943c3.522-1.768,7.215-2.904,11.173-2.909c3.543-0.005,7.043,0.492,10.447,1.492
	c0.889,0.261,1.455,0.137,2.104-0.551c1.975-2.092,4.271-3.792,6.723-5.302c3.856-2.376,8.117-3.153,12.547-3.325
	c2.865-0.111,5.724,0.118,8.586,0.169c2.478,0.044,4.943-0.093,7.397-0.43c2.727-0.375,5.117-1.546,7.321-3.144
	c0.424-0.307,0.837-0.629,1.381-1.04c0.308,2.69-0.254,4.994-1.947,6.974c-2.286,2.672-5.382,3.801-8.701,4.432
	c-3.751,0.712-7.523,0.65-11.285,0.08c-6.845-1.037-12.783,0.836-17.87,5.485c-1.052,0.962-1.919,2.081-2.504,3.39
	c-0.203,0.455-0.341,0.516-0.836,0.27c-7.493-3.721-14.842-3.606-21.857,1.146c-3.409,2.31-6.814,4.563-10.817,5.707
	c-3.833,1.095-7.642,1.379-11.331-0.562C620.429,481.329,618.887,479.789,617.994,478.029z"/>
<path fill="#D1AB67" d="M620.388,485.228c3.155,1.286,6.203,1.991,9.398,1.644c3.346-0.364,6.569-1.295,9.783-2.261
	c3.209-0.964,6.416-1.929,9.755-2.391c4.161-0.576,8.16,0.067,12.091,1.39c1.776,0.597,3.534,1.26,5.168,2.179
	c0.846,0.476,1.486,0.404,2.308-0.077c3.523-2.065,7.237-3.656,11.29-4.4c3.65-0.67,7.24-0.27,10.831,0.409
	c3.674,0.694,7.288,1.654,10.979,2.281c4.249,0.721,8.294,0.323,12.186-1.54c0.157-0.075,0.327-0.124,0.493-0.18
	c0.031-0.011,0.07,0.003,0.246,0.016c-0.41,2.169-1.394,3.969-3.063,5.378c-2.1,1.773-4.6,2.548-7.285,2.856
	c-4.664,0.535-9.137-0.341-13.533-1.795c-2.723-0.9-5.456-1.769-8.375-1.588c-4.744,0.293-9.186,1.485-13.017,4.469
	c-0.627,0.487-1.037,1.548-1.762,1.474c-0.635-0.066-1.154-0.967-1.785-1.414c-2.684-1.906-5.746-2.801-8.96-3.291
	c-4.134-0.633-8.082-0.053-11.895,1.647c-3.773,1.683-7.725,2.751-11.855,2.94c-3.672,0.168-7.212-0.364-10.14-2.884
	C621.821,488.862,620.884,487.32,620.388,485.228z"/>
<g>
	<path fill="#701E20" d="M676.46,553.367c-16.057,0.025-32.114,0.015-48.172,0.011c-0.177,0-0.355,0.017-0.53-0.003
		c-0.45-0.05-0.582,0.128-0.626,0.59c-0.082,0.854,0.165,1.24,1.079,1.128c0.522-0.064,1.06-0.007,1.59-0.007
		c2.868,0.001,2.86,0,2.531,2.902c-0.049,0.434-0.189,0.761-0.612,0.889c-0.397,0.12-0.682-0.122-0.911-0.402
		c-0.199-0.244-0.358-0.522-0.537-0.783c-0.22-0.32-0.241-1.045-0.911-0.481c-0.451,0.38-1.397,0.408-0.73,1.492
		c1.445,2.351,2.949,4.649,4.619,6.849c0.805,1.059,1.137-0.016,1.641-0.247c0.678-0.313,0.32-0.67-0.003-1.041
		c-0.98-1.129-1.961-2.261-2.729-3.648c1.025-0.209,1.889-0.502,2.289-1.471c0.017-1.089,0.05-2.178,0.042-3.267
		c-0.004-0.543,0.112-0.793,0.755-0.81c2.807-0.071,2.768-0.096,2.809,2.739c0.013,0.835-0.258,1.021-1.008,0.948
		c-0.627-0.061-1.265,0-1.896-0.018c-0.324-0.009-0.457,0.086-0.336,0.414h-0.001l0,0c0.582,0.981,1.362,1.546,2.574,1.277
		c0.506-0.112,0.662,0.14,0.652,0.644c-0.028,1.483,0.048,2.971-0.031,4.451c-0.049,0.934,0.497,0.811,1.062,0.803
		c0.578-0.009,1.171,0.18,1.146-0.834c-0.066-2.79-0.022-5.583-0.022-8.375c0-2.03,0-2.051,2.041-2.021
		c0.871,0.012,2.003-0.392,2.545,0.173c0.538,0.559,0.082,1.688,0.175,2.559c0.08,0.752-0.119,1.143-0.964,1.038
		c-0.344-0.042-0.73,0.039-0.878,0.443c-0.141,0.387,0.073,0.677,0.331,0.938c0.697,0.71,1.468,1.336,2.34,1.808
		c0.81,0.438,1.304,0.147,1.331-0.772c0.037-1.236,0.019-2.474,0.02-3.71c0.001-2.529,0-2.502,2.52-2.504
		c0.694,0,0.891,0.188,0.883,0.884c-0.037,3.145,0.03,6.292-0.044,9.435c-0.023,1,0.461,0.943,1.146,0.952
		c0.681,0.01,1.08-0.012,1.061-0.923c-0.065-3.179-0.014-6.36-0.035-9.541c-0.004-0.552,0.082-0.813,0.73-0.804
		c2.509,0.037,5.019,0.046,7.527-0.001c0.967-0.018,0.626,0.629,0.647,1.071c0.022,0.479,0.229,1.108-0.694,1.041
		c-0.844-0.062-1.697-0.049-2.542,0.001c-1.609,0.093-2.673,1.057-2.99,2.639c-0.559,2.796,2.281,6.021,5.377,6.108
		c1.386,0.039,2.568-0.431,3.501-1.456c1.462-1.607,1.191-4.287-0.523-5.363l0,0c-0.154,0.144-0.293,0.31-0.464,0.427
		c-0.579,0.396-0.754,0.702-0.302,1.461c0.951,1.597-0.159,3.275-2.017,3.26c-1.995-0.018-3.863-2.28-3.387-4.119
		c0.166-0.639,0.449-1.196,1.233-1.236c0,0,0,0,0.001,0c0.614-0.252,1.257-0.065,1.884-0.122c0.973-0.088,2.206,0.422,2.85-0.22
		c0.549-0.546,0.164-1.752,0.142-2.662c-0.017-0.65,0.164-0.841,0.825-0.829c2.369,0.041,4.739,0.017,7.108,0.017
		c2.238,0,2.211,0,2.203,2.197c-0.003,0.648-0.166,0.841-0.827,0.821c-1.731-0.051-3.466-0.038-5.199-0.011
		c-1.202,0.02-1.61,0.712-1.024,1.739c0.51,0.896,1.156,1.704,1.979,2.332c0.703,0.536,1.198,0.294,1.285-0.566
		c0.164-1.643,0.164-1.643,1.787-1.643c0.425,0,0.853,0.031,1.273-0.008c0.555-0.051,0.732,0.155,0.721,0.713
		c-0.033,1.556,0.029,3.114-0.028,4.668c-0.028,0.779,0.173,1.097,0.995,1.009c0.646-0.07,1.29,0.164,1.262-0.959
		c-0.078-3.11-0.005-6.224-0.032-9.336c-0.007-0.672,0.063-1.107,0.883-0.962c0.468,0.082,0.658-0.088,0.708-0.617
		C677.638,553.577,677.346,553.365,676.46,553.367z"/>
	<path fill="#742527" d="M638.923,551.234c-0.283-0.23-1.015,0.406-1.089-0.398c-0.118-1.27,0.604-2.089,1.746-2.028
		c0.395,0.021,1.099-0.405,1.167,0.369C640.862,550.472,640.156,551.234,638.923,551.234z"/>
	<path fill="#701E20" d="M619.373,553.357c-15.488,0.024-30.977,0-46.465,0.034c-1.071,0.002-1.762-0.293-2.342-1.179
		c-0.64-0.978-1.515-1.772-2.402-2.533c-1.193-1.021-2.486-1.865-4.078-2.133c-3.206-0.54-5.507,1.308-5.244,4.23
		c0.046,0.518,0.212,1.023,0.333,1.588c-0.266,0-0.512-0.006-0.757,0.001c-0.528,0.014-1.094-0.198-1.083,0.776
		c0.01,0.879,0.354,1.03,1.061,0.919c0.708-0.112,0.887,0.188,0.879,0.876c-0.035,3.146,0.034,6.295-0.043,9.44
		c-0.025,1.037,0.516,0.897,1.169,0.936c0.736,0.043,1.051-0.094,1.036-0.954c-0.057-3.146-0.005-6.294-0.026-9.441
		c-0.004-0.593,0.067-0.886,0.785-0.872c2.404,0.048,4.809,0.046,7.213,0.001c0.71-0.014,0.805,0.273,0.79,0.869
		c-0.035,1.343-0.01,2.688-0.012,4.031c-0.001,1.206-0.51,1.817-1.699,1.972c-0.829,0.107-1.674,0.092-2.185-0.709
		c-0.425-0.666-0.444-1.429-0.043-2.115c0.499-0.854,1.333-0.935,2.23-0.84c0.251,0.026,0.496,0.287,0.768,0.075
		c-0.169-1.583-0.281-1.668-2.04-1.565c-1.926,0.112-3.304,1.368-3.417,3.113c-0.116,1.797,1.049,3.145,2.951,3.558
		c1.18,0.256,2.252-0.178,3.436-0.425c0,0.838,0.068,1.586-0.018,2.314c-0.114,0.964,0.407,0.986,1.128,0.99
		c0.734,0.004,1.144-0.05,1.123-0.999c-0.068-3.146-0.007-6.294-0.041-9.44c-0.007-0.656,0.173-0.843,0.828-0.827
		c2.015,0.047,4.031,0.033,6.046,0.021c0.427-0.003,0.652,0.075,0.628,0.576c-0.021,0.437-0.034,0.745-0.613,0.713
		c-0.776-0.042-1.556-0.021-2.333-0.008c-1.605,0.025-2.446,1.239-1.881,2.729c0.218,0.574,0.617,1.03,1.115,1.385
		c0.315,0.224,0.473,0.342,0.185,0.8c-0.837,1.331-0.468,2.603,0.876,3.43c1.224,0.755,2.544,0.759,3.894,0.493
		c1.26-0.247,2.344-0.908,3.578-1.651c0,0.755,0.061,1.327-0.014,1.882c-0.127,0.941,0.429,0.912,1.082,0.904
		c0.634-0.008,1.126,0.06,1.103-0.893c-0.069-2.721-0.024-5.445-0.024-8.168c0-2.212,0-2.181,2.189-2.203
		c0.726-0.008,0.965,0.174,0.956,0.933c-0.042,3.147,0.021,6.295-0.04,9.441c-0.019,0.954,0.48,0.892,1.113,0.887
		c0.622-0.005,1.132,0.085,1.112-0.88c-0.064-3.146,0-6.294-0.042-9.44c-0.01-0.734,0.167-0.951,0.925-0.942
		c3.465,0.043,6.931,0.007,10.396,0.036c0.385,0.004,1.197-0.359,1.041,0.521c-0.127,0.712,0.677,1.644-0.735,2.162
		c-1.216,0.446-2.154,0.646-3.169-0.229c-0.148-0.129-0.39-0.157-0.593-0.215c-2.725-0.771-5.007,0.745-5.141,3.411
		c-0.102,2.032,2.21,5.097,4.211,5.602c0.404,0.102,0.626-0.012,0.858-0.373c0.738-1.152,0.742-1.111-0.431-1.789
		c-1.313-0.76-2.519-1.63-2.479-3.393c0.019-0.81,0.311-1.473,1.108-1.761c0.867-0.314,1.685-0.069,2.4,0.449
		c0.799,0.579-0.062,1.058-0.185,1.552c-0.261,1.052,0.719,0.729,1.086,1.063c0.39,0.355,0.576,0.04,0.703-0.344
		c0.282-0.854,0.711-1.621,1.49-2.124c0.544-0.35,0.949-0.476,0.923,0.468c-0.047,1.731,0.04,3.467-0.035,5.196
		c-0.037,0.876,0.27,1.059,1.076,1.049c0.786-0.011,1.202-0.068,1.18-1.056c-0.069-3.11-0.006-6.224-0.041-9.335
		c-0.007-0.687,0.173-0.929,0.878-0.887c0.987,0.06,1.98,0.045,2.969,0.004c0.57-0.023,0.906,0.173,1.173,0.681
		c0.9,1.716,0.207,3.064-1.725,3.159c-0.669,0.033-0.816,0.177-0.729,0.852c0.365,2.793,2.744,4.507,5.671,4.064
		c0.561-0.085,1.214-0.745,1.615-0.25c0.299,0.369,0.16,1.159,0.09,1.747c-0.108,0.915,0.336,1.036,1.099,1.013
		c0.694-0.022,1.166,0.018,1.144-0.971c-0.073-3.11-0.007-6.224-0.042-9.335c-0.008-0.691,0.096-1.089,0.895-0.952
		c0.472,0.079,0.657-0.1,0.71-0.624C620.568,553.547,620.245,553.356,619.373,553.357z M561.833,553.363
		c-0.275,0-0.547,0.038-0.77-0.229c-0.816-0.979-0.237-3.275,0.973-3.755c0.899-0.355,1.818-0.313,2.688,0.065
		c1.829,0.793,3.16,2.168,4.468,3.92C566.565,553.365,564.199,553.366,561.833,553.363z M584.706,560.779
		c0,0.217-0.02,0.42-0.203,0.572c-1.313,1.092-2.665,2.123-4.448,2.266c-1.063,0.086-1.771-0.43-1.8-1.204
		c-0.03-0.81,0.573-1.3,1.697-1.328c0.453-0.012,0.909,0.064,1.452,0.107c-0.208-1.717-0.813-2.045-2.946-1.527
		c-0.56,0.137-0.966,0.132-1.274-0.374c-0.387-0.635-0.122-1.22,0.622-1.258c1.022-0.054,2.051-0.063,3.073-0.018
		c0.693,0.03,0.994-0.115,0.987-0.908c-0.017-2.234,0.021-2.22,2.24-2.043c0.452,0.036,0.612,0.171,0.607,0.625
		C584.694,557.385,584.704,559.082,584.706,560.779z M616.698,560.199c-0.003,1.187-0.733,1.861-2.262,2.091
		c-1.214,0.184-2.288-0.354-2.625-1.303c-0.099-0.28-0.178-0.454,0.218-0.644c2.338-1.117,2.777-2.475,1.632-4.835
		c-0.045-0.091-0.068-0.192-0.131-0.373c3.169-0.233,3.169-0.233,3.169,2.731C616.698,558.644,616.699,559.422,616.698,560.199z"/>
	<path fill="#701E20" d="M549.722,553.372c-3.749-0.019-7.5-0.075-11.247,0.011c-1.21,0.027-1.657-0.295-1.945-1.505
		c-0.743-3.117-3.179-4.863-6.092-4.62c-1.704,0.143-2.761,1.291-2.813,2.992c-0.033,1.091,0.413,2.042,0.841,3.002
		c-0.131,0.049-0.191,0.091-0.25,0.091c-5.835,0.004-11.671-0.002-17.507,0.02c-0.512,0.002-0.75-0.212-0.975-0.62
		c-0.765-1.392-1.561-2.767-2.344-4.148c-0.68-1.2-0.648-1.149-1.845-0.42c-0.745,0.455-0.667,0.767-0.152,1.347
		c1.045,1.174,2.014,2.416,3.179,3.829c-2.329,0-4.4,0.031-6.469-0.018c-0.692-0.016-0.82,0.233-0.809,0.853
		c0.01,0.588,0.071,0.901,0.795,0.881c1.838-0.052,3.678-0.013,5.517-0.02c0.416-0.002,0.752-0.014,0.74,0.585
		c-0.031,1.627,0.048,3.257-0.033,4.88c-0.05,0.993-0.859,1.424-1.734,1.563c-0.888,0.143-1.495-0.316-1.763-1.173
		c-0.428-1.368,0.206-2.362,1.634-2.64c0.32-0.063,0.777,0.117,0.931-0.315c0.25-0.704-0.566-1.594-1.308-1.448
		c-0.414,0.082-0.835,0.17-1.224,0.327c-1.841,0.744-2.627,2.596-2.005,4.662c0.503,1.671,2.183,2.655,4.015,2.314
		c0.476-0.089,0.93-0.293,1.477-0.471c0,0.427-0.067,0.823,0.014,1.187c0.154,0.682-0.656,1.798,1.028,1.808
		c1.731,0.011,1.012-1.138,1.07-1.856c0.093-1.16,0.011-2.332,0.029-3.499c0.019-1.191,1.104-2.181,2.207-2.044
		c0.913,0.112,1.424,1.125,1.144,2.354c-0.175,0.769-0.516,1.5-1.112,2.013c-0.75,0.646-0.703,1.039,0.116,1.596
		c0.551,0.374,0.837,0.415,1.278-0.106c0.811-0.957,1.497-1.972,1.794-3.202c0.617-2.545-1.32-4.744-3.803-4.357
		c-0.583,0.091-1.04,0.474-1.622,0.699c0-0.691,0.052-1.297-0.013-1.89c-0.086-0.782,0.16-1.01,0.973-1.004
		c5.624,0.044,11.247,0.052,16.871,0.013c0.858-0.006,0.986,0.302,0.96,1.035c-0.021,0.602-0.127,0.87-0.817,0.884
		c-1.724,0.034-3.57-0.444-5.009,1.056c-0.142,0.147-0.544,0.057-0.826,0.058c-1.592,0.004-3.184-0.019-4.774,0.01
		c-0.954,0.018-1.383,0.558-1.057,1.347c0.47,1.132,1.268,2.047,2.237,2.772c0.622,0.466,1.125,0.146,1.184-0.663
		c0.018-0.246,0.03-0.498-0.001-0.741c-0.085-0.661,0.122-0.999,0.852-0.893c0.312,0.045,0.639,0.037,0.953,0.001
		c0.57-0.066,0.776,0.133,0.842,0.731c0.176,1.593,1.128,2.62,2.596,3.188c0.476,0.184,0.968,0.327,1.534,0.516
		c-0.612,0.545-1.15,1.053-1.72,1.521c-0.338,0.278-0.414,0.482-0.088,0.847c0.323,0.36,0.541,0.318,0.861,0.021
		c0.675-0.623,1.373-1.224,2.07-1.822c0.952-0.818,1.133-0.765,1.451,0.396c0.084,0.306,0.129,0.637,0.278,0.908
		c0.505,0.927,1.203,0.192,1.759,0.094c0.633-0.111,0.088-0.574-0.013-0.788c-0.385-0.819-0.67-1.505,0.178-2.302
		c0.525-0.492,0.521-1.314,0.052-1.966c-0.415-0.576-1.04-0.719-1.708-0.58c-0.742,0.153-1.174,0.611-1.193,1.401
		c-0.007,0.293-0.016,0.61-0.428,0.581c-0.917-0.066-1.857-0.108-2.599-0.75c-0.673-0.582-0.931-1.333-0.627-2.194
		c0.284-0.807,0.921-1.103,1.747-1.093c1.132,0.013,2.269-0.061,3.394,0.022c0.912,0.068,1.113-0.252,1.093-1.119
		c-0.055-2.483-0.015-2.455,2.431-2.472c0.725-0.004,0.962,0.171,0.951,0.931c-0.043,3.112,0.025,6.226-0.044,9.337
		c-0.021,0.932,0.354,1.007,1.103,1.006c0.745-0.002,1.129-0.068,1.11-1.001c-0.066-3.146-0.006-6.295-0.041-9.443
		c-0.008-0.662,0.185-0.856,0.833-0.825c1.023,0.051,2.052,0.048,3.076,0.001c0.59-0.026,0.902,0.227,1.153,0.716
		c0.865,1.685,0.181,3.042-1.695,3.117c-0.854,0.034-0.903,0.377-0.774,1.021c0.386,1.938,1.454,3.265,3.404,3.785
		c1.314,0.352,2.589,0.138,3.979-0.447c0,0.809,0.068,1.486-0.016,2.145c-0.117,0.915,0.372,0.939,1.055,0.924
		c0.676-0.014,1.183,0.062,1.159-0.951c-0.075-3.146-0.023-6.295-0.032-9.442c-0.001-0.495-0.023-0.971,0.686-0.85
		c0.854,0.146,0.964-0.275,0.971-1.017C550.807,553.108,550.185,553.374,549.722,553.372z M533.321,553.35c-0.212,0-0.424,0-0.636,0
		c-0.071,0-0.142,0-0.212,0c-1.996,0-2.474-0.397-2.829-2.355c-0.275-1.517,0.851-2.57,2.352-2.165c1.479,0.4,2.068,1.6,2.494,2.913
		C535.012,553.348,535.004,553.35,533.321,553.35z M546.976,560.259c-0.002,1.119-0.689,1.741-2.213,2.006
		c-1.179,0.205-2.329-0.334-2.644-1.261c-0.079-0.232-0.239-0.454,0.173-0.67c2.451-1.288,2.8-2.458,1.569-5.014
		c-0.013-0.027,0.003-0.068,0.011-0.196c3.104-0.265,3.104-0.265,3.104,2.697C546.977,558.634,546.978,559.446,546.976,560.259z"/>
</g>
<g>
	<path fill="#D1AB67" d="M539.786,532.558c2.651,0,5.302-0.008,7.954,0.011c0.369,0.002,0.902-0.231,0.998,0.448
		c0.086,0.613-0.272,0.688-0.762,0.702c-0.635,0.019-0.431,0.542-0.434,0.882c-0.017,2.085-0.021,4.17,0,6.256
		c0.006,0.572-0.049,0.903-0.775,0.909c-0.732,0.006-0.904-0.262-0.882-0.928c0.04-1.2-0.013-2.403,0.021-3.604
		c0.018-0.608-0.214-0.82-0.805-0.787c-0.634,0.035-1.272-0.007-1.908,0.011c-1.089,0.028-1.45,0.549-1.077,1.599
		c0.34,0.956,1.014,1.693,1.735,2.375c0.287,0.271,0.549,0.465,0.083,0.786c-0.287,0.198-0.482,0.671-0.938,0.19
		c-0.901-0.949-1.853-1.848-2.309-3.127c-0.551-1.544,0.109-3.131,2.049-2.958c0.807,0.073,1.626-0.019,2.438,0.021
		c0.67,0.032,0.734-0.334,0.732-0.861c-0.001-0.504-0.106-0.794-0.7-0.787c-1.944,0.022-3.889,0.031-5.833-0.004
		c-0.666-0.013-0.739,0.312-0.734,0.848c0.018,2.086-0.006,4.171,0.015,6.257c0.006,0.604-0.037,0.982-0.827,0.97
		c-0.79-0.012-0.722-0.457-0.719-0.966c0.007-1.202-0.016-2.404,0.011-3.605c0.012-0.536-0.155-0.776-0.724-0.748
		c-0.705,0.036-1.415-0.015-2.121,0.015c-1.064,0.045-1.355,0.501-1.033,1.535c0.308,0.987,1.038,1.665,1.721,2.379
		c0.215,0.226,0.683,0.412,0.155,0.801c-0.345,0.255-0.583,0.709-1.102,0.146c-0.913-0.992-1.859-1.943-2.262-3.281
		c-0.479-1.594,0.288-2.68,1.922-2.703c0.919-0.013,1.839-0.028,2.757,0.006c0.607,0.022,0.689-0.289,0.687-0.787
		c-0.003-0.514-0.029-0.882-0.716-0.865c-1.59,0.037-3.181,0.011-4.772,0.012c-0.432,0-0.872,0.059-0.84-0.616
		c0.028-0.62,0.456-0.524,0.829-0.524C534.343,532.556,537.065,532.559,539.786,532.558z"/>
	<path fill="#D1AB67" d="M563.527,536.149c-0.229-0.052-0.358-0.091-0.49-0.11c-0.749-0.109-1.432-0.031-1.791,0.756
		c-0.242,0.529-0.193,1.086,0.239,1.468c0.621,0.549,1.349,0.511,2.075,0.152c0.43-0.212,0.605-0.536,0.593-1.02
		c-0.023-0.918-0.05-1.84,0.007-2.755c0.048-0.758-0.242-0.961-0.97-0.952c-2.827,0.036-5.653,0.023-8.479,0.004
		c-0.392-0.002-0.985,0.257-1.01-0.533c-0.024-0.778,0.542-0.594,0.96-0.595c3.78-0.009,7.56-0.011,11.34,0.004
		c0.371,0.002,0.901-0.224,0.99,0.459c0.082,0.622-0.292,0.684-0.772,0.69c-0.562,0.008-0.427,0.462-0.429,0.785
		c-0.01,2.12-0.019,4.24,0.004,6.359c0.006,0.575-0.058,0.897-0.779,0.904c-0.735,0.008-0.946-0.267-0.872-0.929
		c0.024-0.209-0.014-0.426,0.007-0.635c0.062-0.61-0.11-0.843-0.763-0.604c-0.865,0.315-1.738,0.24-2.568-0.167
		c-0.939-0.459-1.322-1.248-1.228-2.257c0.053-0.567-0.142-0.764-0.699-0.728c-0.563,0.036-1.132-0.016-1.695,0.014
		c-0.957,0.05-1.243,0.465-1.003,1.389c0.27,1.041,0.996,1.769,1.716,2.499c0.267,0.27,0.654,0.479,0.153,0.908
		c-0.403,0.346-0.689,0.488-1.128,0.011c-0.938-1.02-1.873-2.026-2.237-3.413c-0.367-1.396,0.43-2.516,1.853-2.505
		c1.191,0.009,2.393-0.17,3.577,0.123c0.467,0.116,0.772-0.28,1.167-0.404C562.628,534.648,563.316,534.927,563.527,536.149z"/>
	<path fill="#D2AD69" d="M598.204,545.392c0.021,0.354-0.175,0.471-0.314,0.62c-0.186,0.198-0.367,0.14-0.551-0.01
		c-0.733-0.6-1.469-1.196-2.202-1.796c-0.21-0.172-0.376-0.391-0.081-0.595c0.378-0.263,0.792-0.993,1.152-0.666
		C597,543.664,597.587,544.609,598.204,545.392z"/>
	<path fill="#D2AC69" d="M549.447,545.314c0.039,0.382-0.13,0.52-0.273,0.675c-0.187,0.202-0.371,0.148-0.553-0.001
		c-0.763-0.626-1.521-1.258-2.288-1.879c-0.257-0.208-0.126-0.373,0.049-0.503c0.353-0.261,0.772-0.952,1.051-0.697
		C548.226,543.635,548.837,544.559,549.447,545.314z"/>
	<path fill="#D3AE6C" d="M564.952,530.955c-0.297-0.102-0.94,0.25-0.836-0.518c0.091-0.676,0.238-1.389,1.211-1.19
		c0.314,0.064,0.857-0.263,0.836,0.446C566.137,530.572,565.792,530.946,564.952,530.955z"/>
	<path fill="#D1AB67" d="M643.269,533.68c0.324,0.032,0.372-0.249,0.377-0.518c0.016-0.861-0.641-0.593-1.065-0.594
		c-6.578-0.014-13.155-0.01-19.733-0.01c-4.314,0-8.629-0.005-12.943,0.008c-0.375,0.001-0.899-0.206-0.97,0.484
		c-0.064,0.644,0.339,0.684,0.802,0.65c0.457-0.033,0.642,0.171,0.617,0.624c-0.021,0.388-0.003,0.777-0.004,1.166
		c-0.002,1.433-0.57,1.756-1.925,1.168c-0.626-0.271-0.836-0.438-0.356-1.138c0.688-1.004,0.149-2.327-0.977-2.811
		c-1.067-0.457-2.841-0.057-3.641,0.804c-0.231,0.249-0.27,0.377-0.003,0.678c0.633,0.713,1.052,0.275,1.566-0.137
		c0.386-0.31,0.854-0.541,1.367-0.219c0.361,0.227,0.528,0.582,0.494,0.992c-0.05,0.591-0.409,0.957-0.967,1.133
		c-0.101,0.031-0.207,0.059-0.312,0.062c-0.647,0.019-0.532,0.343-0.353,0.768c0.203,0.48,0.591,0.428,0.976,0.436
		c0.66,0.014,1.205,0.229,1.351,0.94c0.118,0.577,0.063,1.164-0.507,1.502c-0.649,0.385-1.229,0.121-1.735-0.332
		c-0.59-0.526-1.04-1.171-1.338-1.891c-0.308-0.742-0.715-0.403-1.172-0.225c-0.688,0.27-0.341,0.646-0.127,0.993
		c0.445,0.723,0.935,1.414,1.571,1.99c0.975,0.881,2.078,1.207,3.32,0.685c1.263-0.53,1.759-1.548,1.642-2.878
		c0.918-0.261,1.227,0.096,1.135,0.988c-0.062,0.596,0.015,1.203-0.019,1.803c-0.035,0.613,0.048,0.964,0.828,0.966
		c0.793,0.001,0.836-0.375,0.83-0.979c-0.021-2.051,0.011-4.103-0.019-6.153c-0.009-0.645,0.124-0.931,0.864-0.964
		c0.932-0.041,1.309,0.23,1.177,1.182c-0.063,0.451-0.032,0.92-0.003,1.378c0.102,1.618,1.168,2.604,2.775,2.525
		c0.514-0.025,1.021-0.184,1.605-0.294c0,0.823,0.018,1.6-0.006,2.373c-0.018,0.552,0.012,0.931,0.759,0.927
		c0.709-0.005,0.799-0.314,0.792-0.9c-0.023-2.087,0.033-4.175-0.027-6.259c-0.031-1.045,0.61-0.886,1.245-0.909
		c0.66-0.025,1.133-0.02,1.102,0.909c-0.069,2.084-0.007,4.172-0.03,6.259c-0.007,0.582,0.069,0.894,0.785,0.902
		c0.74,0.009,0.887-0.273,0.877-0.933c-0.03-2.086,0.005-4.173-0.021-6.259c-0.007-0.609,0.134-0.901,0.819-0.885
		c1.626,0.04,3.253,0.023,4.88,0.007c0.475-0.005,0.722,0.124,0.709,0.653c-0.024,1.024,0.019,2.052-0.016,3.076
		c-0.024,0.733-0.825,1.313-1.662,1.27c-0.879-0.046-1.55-0.711-1.435-1.496c0.131-0.892,0.733-1.239,1.591-1.194
		c0.241,0.014,0.48,0.068,0.825,0.119c-0.208-0.982-0.196-1.027-0.451-1.1c-1.447-0.41-3.377,0.386-3.516,1.967
		c-0.162,1.852,1.376,3.085,3.355,2.762c0.39-0.063,1.012-0.775,1.276,0.075c0.332,1.065-0.035,1.741-0.865,1.983
		c-0.976,0.284-1.732,0.846-2.006,1.856c-0.189,0.702-0.209,1.438,0.57,1.861c1.076,0.586,2.178,0.446,3.279,0.063
		c0.358-0.125,0.378-0.363,0.255-0.673c-0.121-0.303-0.264-0.445-0.637-0.313c-0.324,0.115-0.692,0.134-1.042,0.14
		c-0.434,0.007-0.889-0.04-0.979-0.592c-0.084-0.51,0.146-0.889,0.591-1.143c0.32-0.183,0.676-0.249,1.026-0.191
		c1.148,0.188,1.389-0.441,1.377-1.409c-0.024-2.051-0.007-4.102-0.007-6.152c0-1.687,0.04-1.707,1.704-1.567
		c0.45,0.038,0.63,0.185,0.621,0.634c-0.018,0.849-0.016,1.698-0.001,2.547c0.024,1.417,1.186,2.535,2.59,2.512
		c1.39-0.024,2.452-1.09,2.48-2.504c0.016-0.743,0.026-1.486-0.004-2.229c-0.024-0.604,0.035-0.987,0.826-0.977
		c0.73,0.011,0.885,0.279,0.872,0.941c-0.036,1.909-0.042,3.82,0.001,5.729c0.019,0.813-0.07,1.418-1.002,1.682
		c-0.764,0.216-0.625,0.722-0.152,1.17c0.36,0.341,0.547-0.138,0.813-0.222c0.42-0.133,0.861-0.316,1.146,0.133
		c0.28,0.441-0.039,0.803-0.358,1.103c-0.907,0.853-2.46,0.85-3.337-0.119c-0.435-0.479-0.667-0.432-1.089-0.066
		c-0.547,0.473-0.092,0.748,0.168,1.032c1.525,1.68,5.071,1.143,6.021-0.908c0.354-0.764,0.414-1.528-0.297-2.12
		c-0.394-0.327-0.396-0.709-0.396-1.137c0.005-2.016,0.004-4.031,0.001-6.047C642.424,534.25,642.288,533.584,643.269,533.68z
		 M618.401,535.599c0.098,0.782,0.05,1.656-1.144,1.954c-0.926,0.23-1.528-0.155-1.6-1.103c-0.029-0.384-0.015-0.772-0.009-1.159
		c0.025-1.804-0.241-1.519,1.54-1.608c0.946-0.049,1.391,0.207,1.216,1.203C618.375,535.057,618.401,535.238,618.401,535.599z
		 M637.567,535.771c-0.004,0-0.009,0-0.013,0c0,0.491,0.018,0.982-0.004,1.472c-0.025,0.531-0.312,0.859-0.859,0.861
		c-0.532,0.001-0.875-0.291-0.891-0.831c-0.028-1.015-0.021-2.031-0.012-3.048c0.005-0.686,0.538-0.498,0.922-0.518
		c0.423-0.021,0.882-0.068,0.859,0.593C637.554,534.79,637.567,535.281,637.567,535.771z"/>
	<path fill="#D1AB67" d="M596.123,532.566c-7.673-0.011-15.347-0.008-23.02-0.008c-0.177,0-0.354,0.007-0.531,0.001
		c-0.366-0.012-0.613,0.085-0.614,0.524c-0.001,0.369,0.077,0.652,0.512,0.61c0.661-0.063,0.76,0.302,0.731,0.843
		c-0.029,0.564-0.012,1.131-0.005,1.697c0.019,1.575,1.021,2.568,2.61,2.524c0.52-0.015,1.035-0.173,1.67-0.285
		c0,0.9-0.05,1.715,0.015,2.52c0.05,0.615-0.064,0.983-0.656,1.324c-0.852,0.491-1.191,1.668-0.801,2.412
		c0.457,0.87,1.288,0.901,2.124,0.792c0.359-0.047,0.835-0.047,0.772-0.637c-0.054-0.515-0.33-0.61-0.812-0.495
		c-0.261,0.063-0.581-0.05-0.67-0.382c-0.089-0.334,0.01-0.609,0.296-0.839c0.821-0.655,1.932-0.275,2.234,0.826
		c0.164,0.597,0.2,1.227,0.304,1.913c0.471-0.286,1.124-0.146,1.244-0.871c0.235-1.402-0.544-2.843-1.867-3.292
		c-0.359-0.122-0.541-0.246-0.54-0.635c0.008-2.263,0.004-4.525,0.004-6.789c0-0.931,0.711-0.571,1.16-0.604
		c0.452-0.032,1.051-0.195,1.017,0.642c-0.031,0.741-0.03,1.486,0.001,2.228c0.067,1.589,1.504,2.922,3,2.526
		c1.282-0.339,1.434,0.103,1.283,1.141c-0.025,0.174,0.008,0.354-0.006,0.53c-0.046,0.596,0.017,0.987,0.818,0.985
		c0.777-0.002,0.839-0.348,0.832-0.962c-0.025-2.087,0.011-4.173-0.021-6.259c-0.01-0.631,0.162-0.873,0.83-0.858
		c1.873,0.039,3.749,0.054,5.621-0.004c0.942-0.029,0.773,0.555,0.793,1.106c0.02,0.599,0.061,1.12-0.836,1.066
		c-1.127-0.068-2.264-0.05-3.394-0.004c-1.102,0.044-1.363,0.594-0.733,1.514c0.296,0.434,0.671,0.816,1.028,1.205
		c0.217,0.235,0.466,0.476,0.825,0.361c0.401-0.128,0.37-0.499,0.331-0.802c-0.104-0.803,0.303-0.974,0.988-0.902
		c0.35,0.036,0.708,0.03,1.06,0.001c0.552-0.044,0.754,0.181,0.734,0.733c-0.032,0.918,0.014,1.839-0.016,2.758
		c-0.02,0.627-0.006,1.058,0.859,1.047c0.821-0.01,0.804-0.434,0.799-1.005c-0.014-1.91-0.012-3.819-0.001-5.729
		c0.003-0.623-0.254-1.426,0.862-1.382c0.207,0.008,0.223-0.23,0.239-0.408C597.287,532.314,596.59,532.566,596.123,532.566z
		 M576.361,537.549c-0.885,0.211-1.503-0.102-1.602-0.992c-0.084-0.765-0.025-1.544-0.041-2.317
		c-0.008-0.419,0.214-0.554,0.593-0.536c0.14,0.006,0.281-0.003,0.421,0c2.065,0.029,1.703-0.249,1.749,1.945
		C577.565,536.362,577.581,537.258,576.361,537.549z M584.868,537.809c-0.985,0.439-1.888-0.078-1.944-1.147
		c-0.024-0.453-0.004-0.908-0.004-1.363c0.09-0.045,0.18-0.09,0.269-0.136c0.605,0.628,1.199,1.267,1.819,1.88
		C585.364,537.395,585.321,537.607,584.868,537.809z M585.603,536.312c-0.878-0.854-1.682-1.635-2.498-2.428
		C585.477,533.156,585.882,533.539,585.603,536.312z"/>
</g>
</svg>
